
<svg width="350" height="136" xmlns="http://www.w3.org/2000/svg" style="font-family:Calibri,sans-serif;">
  <rect
    x="1"
    y="1"
    width="348"
    height="134"
    fill="#0d1117"
    stroke="#c9d1d9"
    stroke-width="2"
    rx="10"
    ry="10"
  />
  
    <g transform="translate(20, 20) scale(0.65)">
      <g transform="scale(0.075)" style="color:#58a6ff"><path fill="currentColor" d="M128 0C57.308 0 0 57.308 0 128c0 70.693 57.308 128 128 128 70.693 0 128-57.307 128-128C256 57.308 198.693 0 128 0m0 33.805c51.939 0 94.195 42.256 94.195 94.195 0 51.94-42.256 94.195-94.195 94.195-51.939 0-94.195-42.255-94.195-94.195 0-51.939 42.256-94.195 94.195-94.195m-12.5 121.838h-.113a6.342 6.342 0 0 1-4.953-2.528L81.56 114.732a6.34 6.34 0 0 1 10.131-7.62l23.993 31.893 6.863-8.478a6.34 6.34 0 0 1 4.926-2.35h.008a6.331 6.331 0 0 1 4.93 2.364l6.59 8.187 37.692-48.594a6.338 6.338 0 0 1 10.015 7.77L144.1 152.837a6.338 6.338 0 0 1-4.95 2.453h-.057a6.335 6.335 0 0 1-4.938-2.364l-6.697-8.319-7.033 8.686a6.336 6.336 0 0 1-4.926 2.35"/></g>
      <text x="30" y="15" fill="#58a6ff" font-size="16" font-family="Calibri">
        _____'s Stats
      </text>
    </g>
  <g transform="translate(175, 56) scale(1.5)">
      <text x="20" y="20" fill="black" font-size="14">
              ⚠︎ Error: No 7-day summary data available.
            </text>
    </g>
</svg>